<?xml version="1.0" standalone="no"?>
<!DOCTYPE svg PUBLIC "-//W3C//DTD SVG 20010904//EN"
 "http://www.w3.org/TR/2001/REC-SVG-20010904/DTD/svg10.dtd">
<svg version="1.0" xmlns="http://www.w3.org/2000/svg"
 width="1024.000000pt" height="1024.000000pt" viewBox="0 0 1024.000000 1024.000000"
 preserveAspectRatio="xMidYMid meet">

<g transform="translate(0.000000,1024.000000) scale(0.100000,-0.100000)"
fill="#006c6a" stroke="none">
<path d="M4995 9543 c-383 -12 -786 -73 -1110 -169 -690 -203 -1299 -558
-1812 -1058 -546 -530 -886 -1073 -1122 -1788 -136 -413 -197 -785 -208 -1263
-12 -529 56 -995 211 -1453 74 -219 123 -336 236 -567 217 -442 445 -766 780
-1109 416 -425 858 -735 1365 -956 447 -194 878 -309 1370 -362 186 -20 701
-17 905 5 718 79 1429 347 2028 764 507 353 980 863 1284 1383 71 121 213 405
268 535 279 658 387 1467 294 2205 -65 522 -245 1082 -493 1534 -293 534 -676
989 -1146 1362 -636 504 -1436 830 -2240 914 -106 11 -476 31 -510 28 -11 -1
-56 -3 -100 -5z m630 -312 c613 -84 1129 -261 1621 -558 273 -165 506 -348
767 -603 636 -621 1050 -1439 1181 -2335 56 -378 50 -888 -15 -1255 -46 -263
-132 -562 -235 -814 -68 -168 -213 -454 -232 -460 -9 -2 -109 -1 -222 2 l-204
7 -2 1980 -2 1979 -26 23 -27 23 -1054 0 c-765 0 -1061 -3 -1079 -11 -14 -7
-29 -19 -33 -28 -4 -9 -10 -442 -13 -963 l-5 -947 -210 221 c-115 122 -309
325 -429 452 -120 127 -228 236 -240 243 -30 17 -67 16 -97 -5 -15 -9 -109
-105 -210 -212 -226 -239 -979 -1014 -989 -1018 -4 -1 -189 182 -411 408 -400
406 -404 410 -444 410 -22 -1 -49 -6 -61 -13 -11 -7 -97 -91 -189 -187 -93
-96 -360 -370 -593 -607 -390 -398 -424 -436 -429 -473 -5 -35 -2 -43 30 -75
49 -49 97 -49 155 1 l42 36 0 -621 0 -620 -200 -3 c-109 -2 -209 -1 -222 2
-27 7 -110 160 -200 370 -344 808 -419 1695 -214 2550 79 327 167 573 312 863
289 579 653 1016 1194 1433 570 440 1274 724 2000 808 207 24 205 24 530 21
239 -3 338 -8 455 -24z m2443 -4129 l2 -1892 -225 0 -225 0 0 557 c0 504 -2
558 -17 575 -15 17 -42 18 -436 18 -377 0 -422 -2 -439 -17 -17 -15 -18 -46
-18 -580 l0 -563 -192 2 -193 3 -3 731 -2 731 39 7 c72 11 114 95 79 159 -6
12 -49 62 -95 111 l-83 90 0 976 c0 537 3 980 7 983 3 4 410 6 902 5 l896 -3
3 -1893z m-2459 302 l493 -505 6 -911 c4 -750 3 -911 -8 -918 -7 -5 -151 -6
-319 -3 l-306 5 -3 424 -2 424 -24 15 c-20 13 -69 15 -336 13 l-313 -3 -18
-25 c-17 -23 -19 -55 -21 -440 l-3 -415 -312 -3 -313 -3 0 922 0 922 268 271
c147 149 368 376 491 504 123 127 225 232 226 232 1 0 223 -228 494 -506z
m-2152 -355 c363 -365 449 -457 453 -482 3 -18 4 -330 2 -694 l-4 -663 -299 0
-299 0 0 382 c0 341 -2 383 -17 400 -15 17 -37 18 -278 18 -254 0 -263 -1
-281 -21 -18 -20 -19 -44 -22 -400 l-3 -379 -262 2 -262 3 -3 718 -2 718 252
258 c139 141 325 332 413 424 87 92 160 167 162 167 1 0 204 -203 450 -451z
m3943 -1379 l0 -470 -229 0 c-127 0 -232 3 -234 8 -3 4 -8 215 -13 470 l-7
462 242 0 241 0 0 -470z m-2140 -277 l0 -328 -142 2 -143 2 -3 326 -2 325 145
0 145 0 0 -327z m-1340 -461 c3 -40 10 -66 20 -72 9 -6 464 -10 1181 -10 1326
0 1195 -10 1201 90 l3 55 1138 1 c625 1 1137 0 1137 -3 0 -8 -83 -127 -158
-228 -273 -365 -606 -690 -950 -928 -513 -355 -1053 -581 -1652 -691 -683
-125 -1417 -65 -2070 171 -249 90 -528 218 -716 328 -517 302 -979 733 -1322
1234 -40 57 -72 108 -72 113 0 4 507 7 1128 6 l1127 -3 5 -63z"/>
<path d="M6573 6690 c-38 -16 -43 -41 -43 -238 0 -251 -20 -232 248 -232 196
0 201 1 216 22 13 18 16 57 16 216 0 259 16 242 -232 241 -101 0 -193 -4 -205
-9z"/>
<path d="M7355 6688 c-42 -24 -44 -37 -45 -221 0 -206 6 -229 68 -248 25 -7
99 -10 206 -8 l168 4 24 28 c23 27 24 33 24 203 0 185 -7 221 -49 244 -28 14
-370 13 -396 -2z"/>
<path d="M6555 5935 c-25 -24 -25 -25 -25 -224 l0 -200 26 -20 c25 -20 40 -21
215 -21 183 0 189 1 215 24 31 26 30 14 26 274 -3 206 14 192 -237 192 -195 0
-196 0 -220 -25z"/>
<path d="M7335 5934 c-25 -27 -25 -30 -25 -206 0 -195 7 -224 57 -247 14 -7
96 -11 204 -11 245 0 229 -16 229 243 0 181 -1 196 -21 221 l-20 26 -200 0
-200 0 -24 -26z"/>
<path d="M6590 5213 c-8 -3 -25 -15 -37 -26 -22 -20 -23 -26 -23 -214 0 -261
-18 -243 243 -243 l194 0 24 26 c24 25 24 28 24 221 l0 195 -28 24 c-28 23
-32 24 -205 23 -97 0 -184 -3 -192 -6z"/>
<path d="M7373 5209 c-60 -17 -65 -35 -61 -244 l3 -187 28 -24 c28 -24 32 -24
221 -24 183 0 194 1 212 21 17 19 19 41 22 210 4 208 0 222 -53 245 -40 16
-318 18 -372 3z"/>
<path d="M4876 4935 l-26 -24 0 -229 c0 -211 2 -232 19 -253 19 -24 23 -24
218 -27 221 -4 268 4 283 44 6 14 10 124 10 245 l0 220 -25 24 c-24 25 -24 25
-238 25 -213 0 -214 0 -241 -25z"/>
<path d="M2776 4828 c-13 -18 -16 -57 -16 -213 0 -255 -21 -235 253 -235 194
0 208 1 227 20 19 19 20 33 20 213 0 257 22 237 -258 237 -207 0 -211 0 -226
-22z"/>
</g>
</svg>
