<?xml version="1.0" standalone="no"?>
<!DOCTYPE svg PUBLIC "-//W3C//DTD SVG 20010904//EN"
 "http://www.w3.org/TR/2001/REC-SVG-20010904/DTD/svg10.dtd">
<svg version="1.0" xmlns="http://www.w3.org/2000/svg"
 width="1024.000000pt" height="1024.000000pt" viewBox="0 0 1024.000000 1024.000000"
 preserveAspectRatio="xMidYMid meet">

<g transform="translate(0.000000,1024.000000) scale(0.100000,-0.100000)"
fill="#006c6a" stroke="none">
<path d="M4895 9553 c-632 -38 -1216 -194 -1775 -474 -622 -313 -1145 -754
-1568 -1324 -259 -349 -458 -732 -597 -1150 -98 -293 -171 -616 -211 -925 -21
-172 -29 -578 -15 -770 46 -604 181 -1091 450 -1629 477 -950 1251 -1673 2243
-2095 253 -107 616 -216 908 -270 622 -117 1263 -95 1886 64 500 128 1009 360
1432 655 358 249 745 622 1005 968 440 586 707 1211 821 1927 41 253 48 388
43 741 -5 353 -17 490 -68 744 -174 875 -560 1614 -1162 2224 -771 782 -1757
1234 -2857 1311 -132 9 -411 11 -535 3z m715 -323 c412 -54 692 -126 1075
-277 776 -305 1513 -932 1948 -1657 386 -644 587 -1362 587 -2099 0 -247 -11
-393 -46 -607 -69 -431 -188 -802 -374 -1170 -68 -133 -243 -434 -257 -443 -5
-3 -66 31 -138 74 -444 271 -1011 471 -1720 608 -115 22 -244 46 -285 53 l-75
13 -3 513 c-2 281 -1 512 2 512 2 0 27 -14 55 -31 45 -28 57 -31 106 -27 46 4
62 10 87 35 34 34 47 99 30 144 -6 15 -70 80 -144 145 -73 66 -185 169 -250
230 -64 62 -181 169 -260 240 -79 70 -264 239 -413 374 -373 341 -359 330
-404 330 -47 0 -69 -16 -235 -173 -72 -67 -207 -192 -301 -277 -93 -85 -228
-209 -300 -275 -71 -66 -212 -193 -311 -283 -199 -178 -223 -212 -203 -286 11
-40 59 -84 100 -93 l29 -5 0 -534 c0 -293 -4 -535 -8 -538 -5 -3 -64 -14 -133
-26 -179 -29 -461 -86 -626 -126 -79 -19 -148 -34 -153 -34 -6 0 -10 171 -10
465 l0 465 28 -7 c15 -4 70 -7 122 -7 157 2 285 57 400 173 73 74 112 139 135
226 20 78 19 226 -1 296 -33 112 -118 227 -231 311 -51 37 -53 40 -53 86 0
122 -68 270 -165 361 -184 171 -441 186 -650 36 -121 -86 -188 -199 -213 -356
l-16 -96 -40 -23 c-105 -60 -210 -192 -247 -309 -29 -92 -29 -232 0 -322 55
-174 204 -308 391 -355 65 -17 242 -16 282 1 17 7 17 -22 13 -506 -3 -282 -8
-516 -12 -520 -5 -4 -46 -21 -93 -37 -269 -94 -571 -234 -790 -365 -69 -41
-128 -73 -132 -71 -4 2 -35 50 -71 107 -221 353 -401 775 -497 1167 -179 734
-144 1508 100 2240 192 577 549 1146 981 1565 479 463 1026 797 1634 997 293
96 686 170 1020 192 155 10 584 -4 735 -24z m-249 -3599 c232 -215 343 -317
531 -486 151 -135 179 -165 185 -195 6 -32 -3 -1191 -9 -1194 -2 -1 -95 3
-208 10 -113 7 -233 13 -267 13 l-63 1 0 430 c0 453 -2 477 -45 494 -9 3 -175
6 -369 6 l-353 0 -27 -25 -26 -24 0 -430 0 -430 -32 -5 c-18 -2 -132 -12 -253
-21 -121 -9 -230 -19 -242 -22 l-23 -5 0 614 0 613 103 101 c56 55 147 140
202 189 55 49 179 161 275 250 96 89 220 203 274 253 l99 91 52 -47 c29 -26
117 -107 196 -181z m-71 -1502 l0 -342 -46 7 c-26 3 -102 6 -170 6 l-124 0 0
335 0 335 170 0 170 0 0 -341z m50 -609 c493 -18 761 -43 1160 -111 613 -104
1059 -235 1504 -443 111 -52 362 -191 371 -206 16 -26 -323 -397 -515 -566
-218 -190 -486 -383 -717 -513 -316 -178 -753 -346 -1110 -425 -353 -79 -560
-101 -933 -100 -247 0 -322 4 -461 22 -679 91 -1319 338 -1868 720 -184 128
-349 268 -537 456 -169 170 -355 381 -354 403 1 19 183 127 362 213 715 344
1643 534 2738 558 47 1 209 -3 360 -8z"/>
<path d="M6834 7420 c-44 -17 -54 -47 -54 -161 0 -124 3 -135 41 -154 43 -23
77 -18 109 13 28 28 28 29 25 142 -3 103 -5 114 -26 135 -28 27 -66 37 -95 25z"/>
<path d="M6241 7194 c-25 -31 -27 -71 -6 -101 28 -40 157 -158 181 -167 44
-15 90 1 104 35 27 65 18 87 -73 176 -83 82 -85 83 -135 83 -43 0 -54 -4 -71
-26z"/>
<path d="M7297 7131 c-88 -88 -90 -91 -84 -128 11 -70 82 -104 137 -66 14 9
58 49 98 88 66 66 72 74 72 112 0 53 -34 83 -93 83 -38 0 -47 -6 -130 -89z"/>
<path d="M6768 7004 c-165 -39 -300 -174 -337 -335 -61 -263 133 -520 405
-537 238 -14 436 142 476 376 15 91 1 171 -47 269 -57 116 -161 196 -297 228
-76 18 -125 18 -200 -1z"/>
<path d="M6044 6656 c-17 -7 -34 -21 -38 -31 -12 -33 -6 -83 15 -109 20 -25
23 -26 139 -26 65 0 126 3 135 6 20 8 45 56 45 88 0 14 -11 37 -23 52 -23 26
-29 28 -133 31 -79 3 -118 0 -140 -11z"/>
<path d="M7421 6641 c-50 -50 -27 -139 39 -152 19 -4 77 -7 127 -6 86 2 94 4
120 29 35 36 37 87 3 123 -23 24 -28 25 -147 25 -107 0 -125 -2 -142 -19z"/>
<path d="M6323 6148 c-106 -103 -125 -148 -83 -201 48 -61 115 -41 215 64 69
74 81 99 71 154 -8 41 -30 55 -86 55 -39 0 -48 -6 -117 -72z"/>
<path d="M7236 6204 c-10 -10 -16 -33 -16 -65 0 -47 3 -52 72 -125 84 -89 117
-108 164 -99 42 7 64 38 64 89 0 35 -8 46 -87 127 -85 87 -88 89 -134 89 -30
0 -53 -6 -63 -16z"/>
<path d="M6845 6052 c-11 -2 -30 -13 -42 -25 -21 -19 -23 -29 -23 -137 0 -102
3 -121 20 -143 39 -50 116 -43 145 12 20 40 21 198 1 246 -8 19 -16 35 -18 35
-2 0 -17 4 -33 8 -17 5 -39 6 -50 4z"/>
<path d="M7222 5199 c-127 -17 -266 -126 -313 -246 -19 -47 -23 -76 -23 -158
0 -112 16 -164 81 -264 42 -64 596 -628 631 -642 15 -6 33 -4 55 5 18 7 159
142 322 307 304 308 348 363 381 478 26 87 16 210 -23 293 -119 255 -450 305
-647 99 l-53 -56 -39 44 c-90 104 -237 159 -372 140z"/>
</g>
</svg>
