<?xml version="1.0" standalone="no"?>
<!DOCTYPE svg PUBLIC "-//W3C//DTD SVG 20010904//EN"
 "http://www.w3.org/TR/2001/REC-SVG-20010904/DTD/svg10.dtd">
<svg version="1.0" xmlns="http://www.w3.org/2000/svg"
 width="1024.000000pt" height="1024.000000pt" viewBox="0 0 1024.000000 1024.000000"
 preserveAspectRatio="xMidYMid meet">

<g transform="translate(0.000000,1024.000000) scale(0.100000,-0.100000)"
fill="#006c6a" stroke="none">
<path d="M4997 9538 c-565 -20 -1026 -112 -1507 -303 -890 -352 -1635 -985
-2138 -1814 -324 -534 -508 -1082 -598 -1776 -23 -171 -26 -729 -5 -915 60
-550 192 -1015 421 -1485 97 -197 154 -296 286 -495 350 -527 839 -995 1377
-1318 348 -209 641 -339 1012 -451 149 -45 296 -84 355 -95 14 -2 62 -11 106
-20 45 -8 103 -18 130 -22 27 -3 69 -10 94 -15 25 -4 161 -16 303 -26 226 -15
286 -15 490 -4 465 25 846 98 1262 241 533 184 1040 479 1455 845 57 50 373
366 420 420 218 249 446 589 592 879 175 348 296 686 377 1051 33 152 34 154
50 265 26 186 32 248 43 468 11 214 3 494 -17 647 -2 17 -7 57 -10 90 -4 33
-9 76 -11 95 -6 49 -62 333 -80 405 -97 387 -255 780 -452 1123 -514 896
-1320 1583 -2275 1938 -301 112 -706 210 -987 240 -25 2 -54 6 -65 9 -11 2
-58 7 -105 10 -226 16 -350 19 -523 13z m651 -314 c328 -44 508 -85 806 -185
364 -122 699 -289 1010 -503 100 -69 306 -227 352 -270 7 -6 59 -54 116 -106
606 -557 1034 -1298 1213 -2105 15 -66 29 -131 31 -145 3 -14 7 -32 10 -42 12
-41 45 -351 55 -527 11 -186 8 -297 -17 -611 -23 -288 -134 -731 -264 -1060
-209 -526 -499 -969 -895 -1366 -331 -332 -659 -570 -1080 -784 -412 -209
-848 -342 -1348 -412 -195 -27 -752 -35 -937 -12 -653 78 -1209 269 -1746 600
-290 178 -526 367 -774 621 -626 637 -1004 1406 -1135 2308 -24 162 -27 213
-28 505 -2 351 7 473 60 770 43 250 138 576 233 811 137 334 360 715 584 999
498 628 1180 1098 1957 1349 215 70 427 117 739 165 19 3 91 10 160 16 69 5
143 12 165 14 22 2 155 2 295 0 195 -4 298 -11 438 -30z"/>
<path d="M4784 7946 c-159 -51 -275 -166 -330 -326 -22 -64 -23 -72 -23 -624
-1 -308 -3 -561 -5 -563 -5 -5 -210 94 -311 150 -82 45 -208 125 -324 206 -68
48 -121 44 -203 -14 -312 -220 -579 -347 -952 -454 -171 -49 -422 -104 -526
-115 -131 -15 -166 -28 -202 -78 -23 -33 -23 -36 -20 -268 8 -660 94 -1177
270 -1625 165 -422 379 -752 697 -1071 210 -211 427 -376 718 -549 134 -79
144 -78 337 43 338 211 588 422 812 685 l101 117 654 0 653 0 0 -330 c-1 -218
3 -336 10 -350 14 -27 62 -50 103 -50 26 0 61 19 153 83 65 45 176 121 245
168 l126 86 229 -159 c126 -88 243 -166 261 -174 42 -18 97 -1 127 39 20 27
21 42 24 358 l3 329 112 0 c62 1 141 7 175 14 181 39 332 182 386 365 14 49
16 236 16 1860 0 1512 -3 1817 -14 1872 -40 186 -182 335 -367 384 -46 13
-272 15 -1459 14 l-1405 0 -71 -23z m2902 -223 c32 -11 66 -34 100 -67 92 -93
84 91 84 -1950 0 -1741 -1 -1802 -19 -1842 -27 -58 -81 -115 -138 -144 -42
-22 -64 -25 -175 -28 l-128 -4 0 235 0 235 38 13 c77 25 122 52 143 85 20 32
21 43 14 144 l-7 109 30 38 c55 70 102 157 102 190 0 48 -14 77 -78 159 l-59
75 12 86 c22 164 -3 211 -144 266 l-83 32 -38 84 c-21 46 -52 98 -69 115 l-32
31 -129 0 -129 0 -58 56 c-72 71 -89 79 -156 79 -59 0 -101 -23 -184 -103
l-41 -40 -119 7 c-108 6 -121 5 -151 -14 -38 -23 -61 -59 -99 -152 -28 -68
-28 -68 -88 -88 -78 -26 -116 -50 -151 -95 -31 -40 -35 -87 -21 -205 l8 -65
-51 -67 c-54 -72 -80 -123 -80 -160 0 -33 34 -96 88 -163 l49 -60 -10 -102
c-15 -150 3 -181 133 -230 l75 -29 3 -232 2 -232 -574 0 -574 0 50 87 c235
405 390 907 442 1433 24 236 26 282 32 590 5 262 4 288 -13 320 -26 49 -67 69
-180 85 -54 8 -114 17 -133 20 -97 14 -332 70 -452 107 l-68 21 0 586 c0 567
1 587 21 631 32 72 65 106 130 139 l62 31 1382 0 c1266 0 1386 -1 1431 -17z
m-3914 -1207 c203 -141 492 -280 792 -380 108 -36 436 -120 511 -131 66 -9
159 -26 179 -32 18 -5 18 -16 12 -242 -14 -467 -45 -731 -126 -1046 -108 -421
-275 -772 -522 -1093 -91 -120 -328 -362 -458 -468 -97 -80 -248 -188 -367
-264 l-83 -52 -47 28 c-105 61 -274 177 -376 259 -524 418 -869 961 -1037
1634 -30 119 -65 301 -76 394 -3 29 -8 63 -10 77 -10 67 -33 415 -38 581 l-7
187 118 21 c427 79 712 164 991 297 135 64 323 172 417 238 27 20 53 36 57 36
4 0 35 -20 70 -44z m3048 -1091 c87 -71 109 -79 216 -72 l93 6 23 -62 c28 -76
81 -131 163 -170 l61 -29 -1 -107 0 -107 53 -72 54 -72 -46 -59 c-61 -79 -68
-101 -65 -204 l3 -89 -69 -29 c-37 -15 -78 -38 -91 -50 -19 -18 -59 -100 -77
-160 -5 -15 -20 -16 -114 -12 l-109 6 -76 -66 -75 -66 -54 51 c-30 27 -63 56
-74 64 -23 15 -102 20 -186 10 l-55 -6 -24 66 c-12 36 -34 80 -48 96 -24 29
-132 88 -159 88 -21 0 -23 17 -14 102 11 99 3 125 -64 201 -25 28 -45 56 -45
60 0 5 22 34 50 64 62 68 72 102 59 207 -8 64 -8 81 3 85 7 2 45 20 83 40 70
36 70 36 115 127 l45 92 35 -4 c84 -9 158 -5 190 9 19 8 58 35 85 61 28 25 52
45 55 46 3 0 30 -20 60 -45z m-207 -1580 c137 -110 180 -110 308 0 l77 65 86
-6 86 -7 0 -409 c0 -325 -3 -408 -12 -402 -7 4 -90 61 -184 126 -143 98 -178
118 -208 118 -39 0 -45 -3 -278 -163 l-128 -88 0 413 0 413 86 3 85 2 82 -65z"/>
<path d="M5100 7202 c-41 -20 -60 -53 -60 -105 0 -31 7 -46 34 -73 l34 -34
1135 0 c714 0 1145 4 1161 10 32 12 66 65 66 103 0 43 -28 87 -65 103 -29 12
-209 14 -1152 14 -1044 0 -1120 -1 -1153 -18z"/>
<path d="M5104 6640 c-91 -37 -81 -184 15 -210 27 -7 387 -10 1154 -8 1114 3
1116 3 1144 24 15 11 34 39 42 61 18 51 2 96 -43 124 -30 18 -72 19 -1161 18
-621 0 -1140 -4 -1151 -9z"/>
<path d="M4475 5542 c-16 -11 -248 -239 -515 -506 -266 -267 -486 -486 -489
-486 -3 0 -98 92 -211 204 -230 229 -240 235 -321 198 -51 -22 -73 -44 -92
-92 -16 -39 -14 -88 6 -127 8 -14 137 -149 288 -299 287 -287 299 -296 366
-279 17 4 78 57 158 138 72 73 294 299 496 502 516 523 525 533 534 582 9 54
-20 121 -65 153 -45 32 -116 37 -155 12z"/>
<path d="M6655 5097 c-147 -49 -242 -168 -253 -318 -11 -161 65 -295 208 -366
48 -24 67 -27 150 -28 84 0 102 3 152 28 73 36 139 101 174 173 40 81 45 204
14 287 -33 87 -93 155 -173 196 -58 30 -79 35 -150 38 -49 2 -98 -2 -122 -10z"/>
</g>
</svg>
