<?xml version="1.0" standalone="no"?>
<!DOCTYPE svg PUBLIC "-//W3C//DTD SVG 20010904//EN"
 "http://www.w3.org/TR/2001/REC-SVG-20010904/DTD/svg10.dtd">
<svg version="1.0" xmlns="http://www.w3.org/2000/svg"
 width="1024.000000pt" height="1024.000000pt" viewBox="0 0 1024.000000 1024.000000"
 preserveAspectRatio="xMidYMid meet">

<g transform="translate(0.000000,1024.000000) scale(0.100000,-0.100000)"
fill="#006c6a" stroke="none">
<path d="M4775 9540 c-368 -30 -698 -96 -1028 -204 -576 -189 -1062 -463
-1497 -842 -120 -104 -365 -351 -466 -469 -239 -280 -440 -587 -595 -910 -399
-831 -531 -1780 -374 -2683 104 -594 331 -1160 670 -1667 327 -489 734 -897
1220 -1222 493 -329 1086 -566 1670 -667 1198 -207 2406 87 3379 822 333 252
666 593 918 942 438 606 707 1316 800 2115 20 170 17 722 -6 910 -50 427 -140
790 -288 1165 -404 1022 -1228 1883 -2228 2329 -442 197 -846 307 -1340 366
-159 19 -670 28 -835 15z m580 -300 c610 -38 1141 -186 1690 -469 372 -192
668 -413 975 -727 316 -324 540 -636 730 -1014 217 -433 337 -837 407 -1365
25 -192 25 -746 0 -940 -65 -496 -180 -893 -381 -1311 -387 -803 -996 -1425
-1811 -1849 -602 -314 -1240 -459 -1950 -442 -632 15 -1129 139 -1695 423
-278 140 -466 259 -731 464 -151 116 -491 452 -618 608 -496 615 -779 1281
-888 2092 -26 194 -26 754 0 955 69 530 199 950 436 1410 343 667 885 1239
1532 1618 142 84 384 200 554 266 440 173 822 254 1330 284 119 8 271 6 420
-3z"/>
<path d="M4910 8655 c-263 -43 -482 -151 -669 -330 -112 -107 -193 -217 -257
-350 -302 -627 -72 -1257 855 -2345 221 -259 252 -284 326 -260 71 23 524 577
777 950 236 348 378 651 423 905 21 119 21 327 1 438 -57 304 -229 576 -483
764 -142 106 -310 179 -498 218 -110 23 -365 29 -475 10z m355 -610 c230 -48
424 -235 481 -465 24 -97 15 -282 -18 -372 -72 -191 -224 -341 -408 -399 -92
-30 -237 -36 -332 -15 -189 42 -353 171 -438 343 -46 92 -60 148 -66 253 -7
118 11 212 62 318 75 157 258 299 434 336 86 19 199 19 285 1z"/>
<path d="M2530 6543 c-8 -3 -124 -114 -258 -247 -252 -251 -264 -267 -248
-331 7 -27 432 -465 482 -496 43 -26 86 -24 122 6 36 30 47 70 32 110 -6 15
-75 90 -153 166 l-142 138 890 1 c662 1 899 4 924 13 45 16 75 58 74 102 -1
41 -14 59 -57 83 -28 15 -112 17 -930 22 l-900 5 137 129 c143 135 173 177
162 226 -12 56 -80 93 -135 73z"/>
<path d="M7631 6536 c-31 -17 -50 -53 -51 -95 0 -31 14 -49 147 -182 l147
-148 -900 -3 c-819 -3 -902 -4 -930 -20 -60 -33 -72 -108 -25 -160 l29 -33
913 -3 913 -2 -147 -148 c-143 -145 -147 -150 -147 -191 0 -60 41 -101 102
-101 42 0 43 1 295 253 228 227 253 256 253 285 0 18 -6 45 -14 60 -18 32
-462 475 -493 491 -29 14 -62 13 -92 -3z"/>
<path d="M5940 5513 c-50 -19 -50 -21 -50 -275 l0 -238 -101 0 c-98 0 -101 -1
-130 -29 -27 -27 -29 -35 -29 -99 l0 -70 -136 -4 c-135 -3 -136 -3 -160 -31
l-24 -28 0 -1205 0 -1204 -80 0 -80 0 0 690 0 690 -265 0 -265 0 0 254 0 255
-24 28 -24 28 -449 3 c-246 1 -458 0 -470 -3 -12 -3 -32 -15 -43 -27 -20 -22
-20 -31 -20 -970 l0 -948 -110 0 c-151 0 -190 -21 -190 -104 0 -22 9 -45 24
-63 l24 -28 1780 0 1780 0 26 24 c33 31 41 72 21 110 -26 51 -59 61 -200 61
l-125 0 0 1189 c0 844 -3 1197 -11 1220 -18 50 -51 61 -187 61 l-120 0 -4 76
c-3 69 -6 79 -31 100 -26 22 -37 24 -128 24 l-99 0 0 234 c0 208 -2 236 -17
254 -19 23 -59 34 -83 25z m-242 -1109 l-3 -85 -83 -2 -82 -2 0 88 0 87 85 0
86 0 -3 -86z m352 -4 l0 -90 -85 0 -85 0 0 90 0 90 85 0 85 0 0 -90z m350 0
l0 -90 -85 0 -85 0 0 90 0 90 85 0 85 0 0 -90z m-703 -345 c-1 -47 -5 -85 -9
-85 -5 0 -42 0 -83 0 l-75 0 0 85 0 85 84 0 84 0 -1 -85z m351 -2 l-3 -86 -83
-1 -82 -1 0 88 0 87 85 0 86 0 -3 -87z m352 -3 l0 -90 -85 0 -85 0 0 90 0 90
85 0 85 0 0 -90z m-2399 -44 c2 -2 3 -43 1 -90 l-3 -86 -85 0 -84 0 0 90 0 90
83 0 c46 0 86 -2 88 -4z m379 -86 l0 -90 -85 0 -85 0 0 90 0 90 85 0 85 0 0
-90z m1315 -218 l0 -83 -83 -2 -82 -2 0 88 0 88 83 -3 82 -3 0 -83z m353 1
l-3 -88 -82 -3 -83 -3 0 91 0 90 85 0 86 0 -3 -87z m352 -1 l0 -88 -82 1 -83
0 -3 88 -3 87 86 0 85 0 0 -88z m-2400 -126 c0 -3 0 -42 0 -86 l0 -80 -85 0
-85 0 0 83 c0 46 2 86 4 88 6 6 166 1 166 -5z m378 -80 l3 -86 -86 0 -85 0 0
88 0 88 83 -2 82 -2 3 -86z m1320 -151 l0 -85 -84 0 -84 0 0 85 0 85 84 0 84
0 0 -85z m352 0 l0 -85 -85 0 -85 0 0 85 0 85 85 0 85 0 0 -85z m350 0 l0 -85
-85 0 -85 0 0 85 0 85 85 0 85 0 0 -85z m-1470 -19 l0 -85 -85 -3 -85 -3 0 88
0 87 85 0 85 0 0 -84z m-928 -256 l0 -85 -86 -3 -86 -3 0 84 c0 46 3 87 7 91
4 4 43 5 86 4 l79 -3 0 -85z m378 0 l0 -90 -85 0 -85 0 0 90 0 90 85 0 85 0 0
-90z m1315 -75 l0 -85 -82 0 -83 0 0 85 0 85 83 0 82 0 0 -85z m355 0 l0 -85
-85 0 -85 0 0 85 0 85 85 0 85 0 0 -85z m350 0 l0 -85 -85 0 -85 0 0 85 0 85
85 0 85 0 0 -85z m-1470 -90 l0 -85 -85 0 -85 0 0 85 0 85 85 0 85 0 0 -85z
m-690 -380 l0 -195 -132 0 -133 0 0 195 0 195 133 0 132 0 0 -195z m1860 -40
l0 -155 -140 0 -140 0 0 155 0 155 140 0 140 0 0 -155z m-1170 -10 l0 -85 -85
0 -85 0 0 85 0 85 85 0 85 0 0 -85z"/>
</g>
</svg>
