<?xml version="1.0" standalone="no"?>
<!DOCTYPE svg PUBLIC "-//W3C//DTD SVG 20010904//EN"
 "http://www.w3.org/TR/2001/REC-SVG-20010904/DTD/svg10.dtd">
<svg version="1.0" xmlns="http://www.w3.org/2000/svg"
 width="1024.000000pt" height="1024.000000pt" viewBox="0 0 1024.000000 1024.000000"
 preserveAspectRatio="xMidYMid meet">

<g transform="translate(0.000000,1024.000000) scale(0.100000,-0.100000)"
fill="#006c6a" stroke="none">
<path d="M4835 9534 c-658 -54 -1133 -180 -1670 -444 -484 -238 -854 -510
-1246 -916 -309 -321 -535 -642 -733 -1044 -263 -532 -402 -1054 -447 -1675
-14 -196 -6 -597 16 -785 117 -1000 523 -1855 1220 -2569 348 -357 711 -620
1175 -852 844 -422 1790 -560 2726 -399 1026 178 1931 692 2615 1485 575 667
943 1544 1019 2430 15 186 13 656 -6 841 -129 1310 -843 2485 -1955 3217 -588
388 -1232 614 -1984 697 -100 11 -636 21 -730 14z m805 -313 c699 -91 1321
-330 1870 -719 879 -625 1479 -1563 1664 -2602 50 -281 60 -412 60 -745 0
-332 -11 -466 -60 -735 -142 -775 -516 -1504 -1063 -2072 -593 -616 -1352
-1029 -2200 -1198 -1169 -232 -2382 61 -3341 808 -582 454 -1044 1087 -1305
1787 -170 456 -248 899 -248 1410 0 464 51 799 193 1270 332 1095 1187 2031
2283 2499 395 168 829 276 1274 316 179 16 688 5 873 -19z"/>
<path d="M6096 8325 c-55 -8 -131 -24 -170 -35 -95 -29 -216 -80 -216 -91 0
-5 -19 -18 -42 -30 -24 -12 -81 -48 -128 -80 -203 -139 -366 -329 -469 -549
-87 -186 -120 -326 -128 -545 -5 -136 -2 -179 16 -283 98 -572 512 -999 1091
-1127 118 -26 390 -31 525 -10 522 81 943 436 1099 925 54 168 61 223 61 455
-1 193 -3 218 -27 315 -69 275 -197 502 -385 681 -98 94 -194 159 -338 232
-226 112 -362 146 -620 152 -114 3 -203 0 -269 -10z m319 -378 c27 -27 34 -43
40 -93 9 -81 9 -81 49 -88 59 -11 191 -83 244 -134 57 -53 97 -130 107 -208 6
-48 5 -53 -21 -73 -21 -16 -41 -21 -91 -21 -81 0 -116 18 -136 69 -24 59 -69
104 -141 141 -61 30 -71 32 -138 28 -108 -7 -189 -55 -251 -148 -23 -33 -21
-95 4 -146 30 -63 96 -101 328 -188 228 -85 301 -121 366 -178 119 -105 146
-325 61 -504 -61 -129 -129 -185 -291 -239 l-90 -31 -6 -59 c-11 -114 -50
-157 -128 -140 -53 11 -74 47 -81 132 l-5 77 -68 17 c-159 40 -287 128 -345
238 -35 64 -57 159 -48 197 6 23 10 24 92 24 47 0 94 -5 104 -10 11 -6 37 -36
59 -68 121 -178 322 -245 485 -161 95 48 140 119 140 219 0 71 -11 98 -58 148
-41 44 -55 51 -233 111 -279 93 -420 167 -475 247 -67 97 -77 279 -21 389 72
142 202 240 354 270 26 5 27 7 31 86 3 74 6 83 31 105 42 36 91 32 132 -9z"/>
<path d="M4331 5833 l-29 -28 -5 -1168 c-4 -860 -8 -1171 -17 -1182 -13 -16
-213 -66 -274 -68 l-41 -2 -5 702 -5 702 -23 23 -23 23 -393 3 c-384 3 -393 2
-419 -18 -14 -12 -31 -38 -37 -58 -6 -24 -10 -416 -10 -1157 l0 -1120 -227 -5
c-261 -6 -285 -12 -297 -74 -9 -49 9 -111 41 -135 l26 -21 2509 0 c2297 0
2513 1 2544 16 55 26 75 60 72 118 -3 45 -7 53 -37 73 -33 22 -41 23 -260 23
l-226 0 0 704 c0 696 0 705 -21 732 -34 46 -65 50 -158 20 -66 -21 -133 -31
-356 -51 -151 -14 -295 -28 -320 -32 -25 -3 -43 -3 -40 -1 3 3 79 55 170 116
329 220 616 476 910 810 l55 62 114 -90 c99 -78 119 -90 153 -90 54 0 84 32
91 96 4 27 9 252 13 500 l6 450 -32 27 c-17 15 -42 27 -55 27 -13 0 -172 -51
-353 -114 -181 -62 -360 -121 -398 -131 -89 -22 -136 -47 -154 -79 -23 -44 5
-84 135 -187 l115 -93 -23 -25 c-13 -14 -75 -84 -137 -154 -304 -343 -865
-760 -1305 -972 -145 -70 -339 -150 -380 -157 -20 -3 -20 4 -25 980 l-5 984
-28 24 -28 24 -389 0 -390 0 -29 -27z m1949 -2652 c0 -363 3 -666 6 -675 6
-14 -46 -16 -540 -16 l-546 0 0 469 0 468 104 47 c149 66 476 191 721 276 116
39 217 76 225 81 8 4 18 9 23 9 4 0 7 -297 7 -659z m-1994 -28 c4 -10 10 -163
13 -341 l6 -323 -167 1 c-161 2 -166 2 -172 23 -10 36 -7 564 3 590 12 31 28
37 126 52 123 19 181 18 191 -2z"/>
</g>
</svg>
