<svg width="494" height="513" viewBox="0 0 494 513" fill="none" xmlns="http://www.w3.org/2000/svg">
<path fill-rule="evenodd" clip-rule="evenodd" d="M356.371 2.86901C355.268 3.89701 352.65 9.63401 350.554 15.619C348.457 21.603 346.659 26.604 346.556 26.731C346.454 26.859 341.812 26.079 336.239 24.999C301.825 18.327 264.656 21.491 231.649 33.902C190.863 49.237 155.025 78.904 133.153 115.437C128.323 123.505 128.253 124.424 130.365 152C131.247 163.512 132.138 169.467 133.313 171.698C136.763 178.247 139.225 179.211 181.094 190.41C202.871 196.234 221.855 201 223.279 201C229.863 201 233.805 197.959 241.35 187.06L246.5 179.621L247.162 184.56C247.527 187.277 247.864 191.495 247.912 193.934C248.031 199.95 251.351 206.436 255.68 209.111C257.626 210.314 266.257 213.206 274.859 215.537C288.422 219.214 290.454 220.024 290.152 221.638C289.96 222.662 281.057 256.125 270.366 296C259.676 335.875 250.478 370.188 249.926 372.25L248.923 376H212.572C172.186 376 172.698 375.917 171.391 382.684C170.895 385.252 171.273 386.364 173.343 388.434L175.909 391L242.705 391.25C336.322 391.6 330.608 391.728 336.5 389.159C340.574 387.383 347.239 381.165 372.5 355.571C404.966 322.678 406.612 321.339 418.25 318.358C426.495 316.245 433.861 317.023 446.5 321.339L456.5 324.754L404 377.225C358.815 422.385 350.927 429.856 347.384 430.848C344.363 431.693 304.213 432 196.489 432H49.71L50.296 425.006C51.105 415.358 54.866 407.363 61.583 401.01C71.613 391.524 71.351 391.575 111.5 391.203C145.525 390.888 146.562 390.82 148.75 388.765C151.957 385.752 151.778 380.757 148.365 378.073C145.82 376.07 144.603 376 112.575 376C75.911 376 72.658 376.401 61.621 382.281C44.693 391.3 35.156 409.62 35.035 433.35C35.002 439.827 35.185 440.385 38.4 443.6L41.8 447H52.4C58.23 447 63 447.242 63 447.537C63 447.832 59.322 456.044 54.827 465.787C47.056 482.629 46.65 483.856 46.577 490.75L46.5 498H25.885C6.54299 498 5.10698 498.128 2.63498 500.073C-0.810016 502.782 -0.886016 507.205 2.45498 510.545L4.90898 513H238.28H471.651L473.826 510.686C476.714 507.611 476.652 502.961 473.686 500.174C471.398 498.025 470.957 498 435.379 498H399.388L399.401 491.25C399.414 484.717 399.004 483.601 386.651 456.56L373.888 428.62L423.34 379.06C450.538 351.802 473.288 328.517 473.896 327.316C477.008 321.161 474.059 314.909 466.764 312.197C434.773 300.299 420.587 299.395 402.219 308.084C396.154 310.952 392.436 314.351 364 343.018C338.986 368.236 331.751 374.98 328.864 375.775C324.616 376.944 265 376.141 265 374.915C265 373.727 304.999 224.667 305.435 224.232C305.643 224.024 312.634 225.687 320.97 227.927C329.307 230.167 337.951 232 340.178 232C346.746 232 351.395 228.617 357.801 219.175L363.5 210.775L364.504 221.138C365.581 232.257 367.352 236.69 372.14 240.258C375.409 242.695 449.6 262.936 456.116 263.17C464.831 263.482 467.097 261.437 481.25 240.485L494 221.61V212.856C494 186.962 486.587 156.616 473.835 130.307C468.187 118.657 453.921 96.563 451.054 95.029C448.026 93.408 444.179 93.821 442 96C438.443 99.557 439.445 103.016 447.477 114.9C460.287 133.856 470.317 157.017 474.843 178.092C477.039 188.32 479.524 207.81 478.732 208.601C478.359 208.974 384.627 184.416 379.459 182.591C378.765 182.346 379.056 177.617 380.337 168.362C381.91 156.999 382.278 148.01 382.378 118.5C382.491 85.277 381.849 72.588 379.329 58.169L378.747 54.838L383.624 57.317C390.807 60.97 405.519 70.869 413.377 77.338C420.796 83.446 424.173 84.359 427.847 81.25C428.984 80.287 430.219 78.219 430.59 76.653C431.193 74.11 430.607 73.179 425.096 67.936C413.166 56.583 382.893 38.722 366.5 33.365C363.75 32.466 361.386 31.639 361.246 31.528C361.106 31.416 362.751 26.246 364.9 20.037C368.152 10.647 368.639 8.26301 367.799 5.85401C366.074 0.905013 360.142 -0.643988 356.371 2.86901ZM309.394 36.859L315.288 37.5L308.379 45.5C288.161 68.91 271.576 94.852 257.682 124.794C254.695 131.233 251.413 138.863 250.391 141.75C249.368 144.637 248.112 147 247.6 147C246.423 147 148.627 120.886 148.14 120.442C147.942 120.262 149.967 116.977 152.64 113.144C182.818 69.86 232.326 41.476 285.238 37.123C297.871 36.083 301.868 36.039 309.394 36.859ZM351.623 44.245L362.466 47.503L363.161 51.501C366.76 72.209 367.499 83.383 367.462 116.5C367.433 142.619 367.025 153.612 365.703 163.926C364.756 171.31 363.782 177.551 363.539 177.794C363.185 178.149 264.294 152.157 263.188 151.418C262.429 150.911 270.095 133.215 277.014 119.5C289.941 93.879 304.468 72.499 323.921 50.469C334.851 38.09 332.722 38.568 351.623 44.245ZM179.074 144.483C196.908 149.258 217.575 154.759 225 156.708C232.425 158.658 238.879 160.597 239.342 161.018C240.162 161.764 224.607 186 223.309 186C222.321 186 147.649 165.901 146.886 165.43C146.521 165.204 145.924 159.502 145.559 152.76C145.194 146.017 144.644 139.195 144.335 137.6C143.901 135.35 144.097 134.823 145.212 135.251C146.002 135.554 161.24 139.709 179.074 144.483ZM306.438 178.562C330.122 184.921 351.225 190.573 353.334 191.123C356.032 191.826 357.004 192.547 356.616 193.558C355.39 196.754 340.768 217 339.686 217C337.896 217 266.723 197.885 264.844 196.899C263.551 196.22 263.05 193.898 262.555 186.265C262.206 180.894 261.671 174.363 261.366 171.75C260.96 168.266 261.154 167 262.094 167C262.799 167 282.754 172.203 306.438 178.562ZM420.174 209.068C442.903 215.155 464.2 220.862 467.5 221.749C470.8 222.636 473.679 223.497 473.899 223.663C474.466 224.091 460.169 245.551 458.165 247.28C456.697 248.546 452.425 247.619 422 239.434C403.025 234.329 385.859 229.664 383.853 229.067L380.207 227.982L379.578 219.741C379.233 215.208 378.691 208.462 378.373 204.75C378.056 201.038 378.033 198 378.322 198C378.611 198 397.444 202.981 420.174 209.068ZM373.412 463.75C380.161 478.475 384.318 488.784 384.349 490.879C384.44 496.887 377.757 500.072 373.08 496.25C370.512 494.152 348.582 446.64 349.968 446.178C350.499 446 353.312 444.601 356.217 443.069C359.123 441.536 361.731 440.219 362.013 440.141C362.294 440.063 367.424 450.688 373.412 463.75ZM96 447.54C96 449.649 74.534 494.864 72.874 496.25C71.722 497.212 69.683 498 68.344 498C65.374 498 61 493.85 61 491.031C61 489.898 64.214 481.89 68.143 473.236C72.071 464.581 76.34 455.138 77.63 452.25L79.975 447H87.987C92.394 447 96 447.243 96 447.54ZM229.415 449.25C229.02 450.487 225.926 461.85 222.541 474.5L216.385 497.5L153.083 497.757C102.55 497.963 89.885 497.761 90.301 496.757C90.588 496.066 94.735 486.95 99.517 476.5C104.299 466.05 109.264 455.138 110.551 452.25L112.89 447H171.512H230.135L229.415 449.25ZM344.24 472.25L355.727 497.5L294.205 497.758C260.367 497.899 232.528 497.861 232.34 497.673C232.151 497.485 235.028 486.006 238.733 472.165L245.469 447H289.111H332.753L344.24 472.25Z" fill="url(#paint0_linear_35_6)"/>
<defs>
<linearGradient id="paint0_linear_35_6" x1="372.097" y1="0.964347" x2="121.902" y2="513" gradientUnits="userSpaceOnUse">
<stop stop-color="#1DC1E7"/>
<stop offset="0.81724" stop-color="#72BE46"/>
</linearGradient>
</defs>
</svg>
